<svg xmlns="http://www.w3.org/2000/svg" viewBox="0 0 512 512">
  <defs>
    <clipPath id="c"><circle cx="256" cy="256" r="256"/></clipPath>
  </defs>
  <g clip-path="url(#c)">
    <rect width="512" height="512" fill="#1a2744"/>
    <!-- Map pin body -->
    <path d="M256 440 C256 440 152 296 152 216 C152 158.6 198.6 112 256 112 C313.4 112 360 158.6 360 216 C360 296 256 440 256 440Z" fill="#2a3f5f"/>
    <!-- Planet circle -->
    <circle cx="256" cy="208" r="72" fill="#f0e6d3"/>
    <!-- Planet dots -->
    <g fill="#2a3f5f" opacity="0.7">
      <circle cx="232" cy="188" r="4"/><circle cx="248" cy="196" r="3.5"/>
      <circle cx="268" cy="188" r="4"/><circle cx="280" cy="204" r="3"/>
      <circle cx="240" cy="212" r="3.5"/><circle cx="260" cy="220" r="4"/>
      <circle cx="224" cy="204" r="3"/><circle cx="272" cy="216" r="3.5"/>
      <circle cx="252" cy="180" r="3"/><circle cx="236" cy="224" r="3"/>
      <circle cx="264" cy="200" r="3.5"/><circle cx="244" cy="208" r="3"/>
      <circle cx="276" cy="192" r="3"/><circle cx="228" cy="216" r="3.5"/>
    </g>
    <!-- Ring / orbit -->
    <ellipse cx="256" cy="208" rx="100" ry="28" fill="none" stroke="#8a9ab5" stroke-width="6" transform="rotate(-20 256 208)"/>
  </g>
</svg>
