<svg xmlns="http://www.w3.org/2000/svg" viewBox="0 0 512 512" width="512" height="512" role="img" aria-label="Lokalita">
  <!-- Map Pin Body (Deep Navy) -->
  <path d="M 256 22 C 138 22 42 118 42 236 C 42 354 190 480 256 502 C 322 480 470 354 470 236 C 470 118 374 22 256 22 Z" fill="#1B2A4A"/>

  <!-- Planet Sphere (Cream/Off-white) -->
  <circle cx="256" cy="216" r="118" fill="#F0EDE8"/>

  <!-- Craters -->
  <circle cx="205" cy="160" r="8" fill="#1B2A4A" opacity="0.5"/>
  <circle cx="240" cy="148" r="5" fill="#1B2A4A" opacity="0.45"/>
  <circle cx="188" cy="195" r="6" fill="#1B2A4A" opacity="0.5"/>
  <circle cx="228" cy="190" r="10" fill="#1B2A4A" opacity="0.4"/>
  <circle cx="272" cy="168" r="6" fill="#1B2A4A" opacity="0.5"/>
  <circle cx="305" cy="185" r="8" fill="#1B2A4A" opacity="0.45"/>
  <circle cx="320" cy="210" r="5" fill="#1B2A4A" opacity="0.5"/>
  <circle cx="282" cy="208" r="7" fill="#1B2A4A" opacity="0.4"/>
  <circle cx="248" cy="228" r="9" fill="#1B2A4A" opacity="0.45"/>
  <circle cx="218" cy="248" r="6" fill="#1B2A4A" opacity="0.5"/>
  <circle cx="292" cy="242" r="6" fill="#1B2A4A" opacity="0.45"/>
  <circle cx="265" cy="262" r="5" fill="#1B2A4A" opacity="0.4"/>
  <circle cx="235" cy="272" r="7" fill="#1B2A4A" opacity="0.45"/>
  <circle cx="198" cy="262" r="5" fill="#1B2A4A" opacity="0.5"/>
  <circle cx="314" cy="232" r="4" fill="#1B2A4A" opacity="0.45"/>
  <circle cx="180" cy="228" r="4" fill="#1B2A4A" opacity="0.4"/>
  <circle cx="260" cy="185" r="4" fill="#1B2A4A" opacity="0.5"/>
  <circle cx="244" cy="205" r="5" fill="#1B2A4A" opacity="0.35"/>
  <circle cx="302" cy="260" r="4" fill="#1B2A4A" opacity="0.4"/>

  <!-- Saturn Ring (subtle, clipped appearance) -->
  <defs>
    <clipPath id="fc">
      <path d="M 256 22 C 138 22 42 118 42 236 C 42 354 190 480 256 502 C 322 480 470 354 470 236 C 470 118 374 22 256 22 Z"/>
    </clipPath>
  </defs>
  <ellipse cx="256" cy="220" rx="170" ry="42" fill="none" stroke="#C8C4BE" stroke-width="12" clip-path="url(#fc)" opacity="0.7" transform="rotate(-15, 256, 220)"/>
</svg>
